<svg width="63" height="63" viewBox="0 0 63 63" fill="none" xmlns="http://www.w3.org/2000/svg">
<rect width="63" height="63" rx="31.5" fill="#3FAC3B"/>
<mask id="mask0_624_4124" style="mask-type:alpha" maskUnits="userSpaceOnUse" x="10" y="10" width="43" height="43">
<rect x="10" y="10" width="43" height="43" rx="18" fill="#D9D9D9"/>
</mask>
<g mask="url(#mask0_624_4124)">
<path d="M25.3484 51.7002L21.8532 45.56L15.2308 44.025L15.8746 36.9254L11.3677 31.5527L15.8746 26.1801L15.2308 19.0805L21.8532 17.5455L25.3484 11.4053L31.603 14.1875L37.8575 11.4053L41.3527 17.5455L47.9752 19.0805L47.3313 26.1801L51.8383 31.5527L47.3313 36.9254L47.9752 44.025L41.3527 45.56L37.8575 51.7002L31.603 48.9179L25.3484 51.7002ZM26.9121 46.8073L31.603 44.6966L36.3859 46.8073L38.9613 42.2021L44.0201 40.9549L43.5602 35.5822L46.9634 31.5527L43.5602 27.4273L44.0201 22.0546L38.9613 20.9034L36.2939 16.2982L31.603 18.4089L26.8201 16.2982L24.2447 20.9034L19.1859 22.0546L19.6458 27.4273L16.2425 31.5527L19.6458 35.5822L19.1859 41.0508L24.2447 42.2021L26.9121 46.8073ZM29.6714 38.3645L40.065 27.5232L37.4896 24.741L29.6714 32.8959L25.7163 28.8664L23.1409 31.5527L29.6714 38.3645Z" fill="white"/>
</g>
</svg>
