<svg width="68" height="67" viewBox="0 0 68 67" fill="none" xmlns="http://www.w3.org/2000/svg">
<rect x="0.5" width="67" height="67" rx="33.5" fill="#F7F8FA"/>
<mask id="mask0_606_3005" style="mask-type:alpha" maskUnits="userSpaceOnUse" x="12" y="12" width="43" height="42">
<rect x="12.5" y="12" width="42" height="42" fill="#D9D9D9"/>
</mask>
<g mask="url(#mask0_606_3005)">
<path d="M33.5 50.5C31.3708 50.2375 29.2563 49.6615 27.1562 48.7719C25.0562 47.8823 23.1823 46.6063 21.5344 44.9438C19.8865 43.2813 18.5521 41.1813 17.5312 38.6438C16.5104 36.1063 16 33.0583 16 29.5V27.75H17.75C19.2375 27.75 20.7687 27.9396 22.3438 28.3188C23.9188 28.6979 25.3917 29.2667 26.7625 30.025C27.1125 27.5167 27.9073 24.9427 29.1469 22.3031C30.3865 19.6635 31.8375 17.3958 33.5 15.5C35.1625 17.3958 36.6135 19.6635 37.8531 22.3031C39.0927 24.9427 39.8875 27.5167 40.2375 30.025C41.6083 29.2667 43.0812 28.6979 44.6562 28.3188C46.2313 27.9396 47.7625 27.75 49.25 27.75H51V29.5C51 33.0583 50.4896 36.1063 49.4688 38.6438C48.4479 41.1813 47.1135 43.2813 45.4656 44.9438C43.8177 46.6063 41.951 47.8823 39.8656 48.7719C37.7802 49.6615 35.6583 50.2375 33.5 50.5ZM33.4125 46.9125C33.0917 42.0708 31.6552 38.4104 29.1031 35.9312C26.551 33.4521 23.3792 31.9208 19.5875 31.3375C19.9083 36.325 21.3885 40.0438 24.0281 42.4937C26.6677 44.9438 29.7958 46.4167 33.4125 46.9125ZM33.5 35.8C33.9375 35.1583 34.4698 34.4948 35.0969 33.8094C35.724 33.124 36.3292 32.5333 36.9125 32.0375C36.8542 30.375 36.526 28.6396 35.9281 26.8313C35.3302 25.0229 34.5208 23.2583 33.5 21.5375C32.4792 23.2583 31.6698 25.0229 31.0719 26.8313C30.474 28.6396 30.1458 30.375 30.0875 32.0375C30.6708 32.5333 31.2833 33.124 31.925 33.8094C32.5667 34.4948 33.0917 35.1583 33.5 35.8ZM36.9125 46.125C37.9917 45.775 39.1146 45.2646 40.2812 44.5938C41.4479 43.9229 42.5344 43.0115 43.5406 41.8594C44.5469 40.7073 45.4073 39.2708 46.1219 37.55C46.8365 35.8292 47.2667 33.7583 47.4125 31.3375C44.6708 31.7458 42.2646 32.6573 40.1938 34.0719C38.1229 35.4865 36.5333 37.2875 35.425 39.475C35.775 40.4083 36.074 41.4292 36.3219 42.5375C36.5698 43.6458 36.7667 44.8417 36.9125 46.125Z" fill="#3FAC3B"/>
</g>
</svg>
