<svg width="68" height="67" viewBox="0 0 68 67" fill="none" xmlns="http://www.w3.org/2000/svg">
<rect x="0.166748" width="67" height="67" rx="33.5" fill="#F7F8FA"/>
<mask id="mask0_606_3011" style="mask-type:alpha" maskUnits="userSpaceOnUse" x="12" y="12" width="41" height="41">
<rect x="12.1667" y="12" width="40" height="41" fill="#D9D9D9"/>
</mask>
<g mask="url(#mask0_606_3011)">
<path d="M18.8333 46.1666V30.151L15.8333 32.5L13.875 29.8093L32.1667 15.4166L50.5 29.7666L48.5 32.5L32.1667 19.6875L22.1667 27.5458V42.75H28.8333V46.1666H18.8333ZM41.3333 50.2239C40.1667 51.0496 38.8819 51.3984 37.4792 51.2703C36.0764 51.1421 34.875 50.5656 33.875 49.5406C32.875 48.5156 32.3125 47.2842 32.1875 45.8463C32.0625 44.4085 32.4028 43.0916 33.2083 41.8958C32.4028 40.7 32.0625 39.3831 32.1875 37.9453C32.3125 36.5074 32.875 35.276 33.875 34.251C34.875 33.226 36.0764 32.6494 37.4792 32.5213C38.8819 32.3932 40.1667 32.742 41.3333 33.5677C42.5 32.742 43.7847 32.3932 45.1875 32.5213C46.5903 32.6494 47.7917 33.226 48.7917 34.251C49.7917 35.276 50.3542 36.5074 50.4792 37.9453C50.6042 39.3831 50.2639 40.7 49.4583 41.8958C50.2639 43.0916 50.6042 44.4085 50.4792 45.8463C50.3542 47.2842 49.7917 48.5156 48.7917 49.5406C47.7917 50.5656 46.5903 51.1421 45.1875 51.2703C43.7847 51.3984 42.5 51.0496 41.3333 50.2239ZM41.3333 46.0385L43.25 47.4052C43.75 47.7753 44.2917 47.9319 44.875 47.875C45.4583 47.818 45.9722 47.5618 46.4167 47.1062C46.8611 46.6507 47.1111 46.1239 47.1667 45.526C47.2222 44.9281 47.0694 44.3729 46.7083 43.8604L45.375 41.8958L46.7083 39.9312C47.0694 39.4187 47.2222 38.8635 47.1667 38.2656C47.1111 37.6677 46.8611 37.1409 46.4167 36.6854C45.9722 36.2298 45.4583 35.9736 44.875 35.9166C44.2917 35.8597 43.75 36.0163 43.25 36.3864L41.3333 37.7531L39.4167 36.3864C38.9167 36.0163 38.375 35.8597 37.7917 35.9166C37.2083 35.9736 36.6944 36.2298 36.25 36.6854C35.8056 37.1409 35.5556 37.6677 35.5 38.2656C35.4444 38.8635 35.5972 39.4187 35.9583 39.9312L37.2917 41.8958L35.9583 43.8604C35.5972 44.3729 35.4444 44.9281 35.5 45.526C35.5556 46.1239 35.8056 46.6507 36.25 47.1062C36.6944 47.5618 37.2083 47.818 37.7917 47.875C38.375 47.9319 38.9167 47.7753 39.4167 47.4052L41.3333 46.0385ZM41.3333 44.0312C41.9167 44.0312 42.4097 43.8248 42.8125 43.4119C43.2153 42.9991 43.4167 42.4937 43.4167 41.8958C43.4167 41.2979 43.2153 40.7925 42.8125 40.3796C42.4097 39.9668 41.9167 39.7604 41.3333 39.7604C40.75 39.7604 40.2569 39.9668 39.8542 40.3796C39.4514 40.7925 39.25 41.2979 39.25 41.8958C39.25 42.4937 39.4514 42.9991 39.8542 43.4119C40.2569 43.8248 40.75 44.0312 41.3333 44.0312Z" fill="#3FAC3B"/>
</g>
</svg>
