<svg width="68" height="67" viewBox="0 0 68 67" fill="none" xmlns="http://www.w3.org/2000/svg">
<rect x="0.833252" width="67" height="67" rx="33.5" fill="#F7F8FA"/>
<path d="M34.3333 53.9138C32.7104 53.9138 31.3311 53.3467 30.1951 52.2126C29.0591 51.0785 28.4911 49.7014 28.4911 48.0813C28.4911 46.8175 28.8563 45.6834 29.5865 44.679C30.3168 43.6745 31.2499 42.9778 32.3859 42.589V39.0409C32.0289 38.9113 31.6881 38.7573 31.3635 38.5791C31.039 38.4009 30.7468 38.1822 30.4872 37.923L27.4201 39.7213C27.4526 39.8833 27.4769 40.0535 27.4931 40.2317C27.5093 40.4099 27.5175 40.5962 27.5175 40.7906C27.5175 42.4108 26.9495 43.7879 25.8135 44.922C24.6776 46.0561 23.2982 46.6231 21.6754 46.6231C20.0526 46.6231 18.6732 46.0561 17.5372 44.922C16.4012 43.7879 15.8333 42.4108 15.8333 40.7906C15.8333 39.1705 16.4012 37.7934 17.5372 36.6593C18.6732 35.5252 20.0526 34.9581 21.6754 34.9581C22.4218 34.9581 23.1197 35.0796 23.7688 35.3226C24.4179 35.5657 25.0021 35.914 25.5214 36.3676L28.5398 34.6179C28.5074 34.4559 28.483 34.2776 28.4668 34.0832C28.4506 33.8888 28.4425 33.6944 28.4425 33.5C28.4425 33.3056 28.4506 33.1192 28.4668 32.941C28.483 32.7628 28.5074 32.5927 28.5398 32.4307L25.5214 30.6323C25.0021 31.086 24.4179 31.4343 23.7688 31.6773C23.1197 31.9203 22.4218 32.0418 21.6754 32.0418C20.0526 32.0418 18.6732 31.4748 17.5372 30.3407C16.4012 29.2066 15.8333 27.8295 15.8333 26.2093C15.8333 24.5892 16.4012 23.2121 17.5372 22.078C18.6732 20.9439 20.0526 20.3768 21.6754 20.3768C23.2982 20.3768 24.6776 20.9439 25.8135 22.078C26.9495 23.2121 27.5175 24.5892 27.5175 26.2093C27.5175 26.4038 27.5093 26.5982 27.4931 26.7926C27.4769 26.987 27.4526 27.1652 27.4201 27.3272L30.4872 29.077C30.7468 28.8178 31.039 28.6071 31.3635 28.4451C31.6881 28.2831 32.0289 28.1373 32.3859 28.0077V24.4596C31.2499 24.0707 30.3168 23.366 29.5865 22.3453C28.8563 21.3246 28.4911 20.1824 28.4911 18.9187C28.4911 17.2986 29.0591 15.9214 30.1951 14.7873C31.3311 13.6532 32.7104 13.0862 34.3333 13.0862C35.9561 13.0862 37.3354 13.6532 38.4714 14.7873C39.6074 15.9214 40.1754 17.2986 40.1754 18.9187C40.1754 20.1824 39.8102 21.3246 39.08 22.3453C38.3497 23.366 37.4166 24.0707 36.2806 24.4596V28.0077C36.6376 28.1373 36.9703 28.2912 37.2786 28.4694C37.587 28.6476 37.871 28.8664 38.1306 29.1256L41.2464 27.2786C41.214 27.1166 41.1896 26.9465 41.1734 26.7683C41.1572 26.5901 41.149 26.4038 41.149 26.2093C41.149 24.5892 41.717 23.2121 42.853 22.078C43.989 20.9439 45.3683 20.3768 46.9911 20.3768C48.614 20.3768 49.9933 20.9439 51.1293 22.078C52.2653 23.2121 52.8333 24.5892 52.8333 26.2093C52.8333 27.8295 52.2653 29.2066 51.1293 30.3407C49.9933 31.4748 48.614 32.0418 46.9911 32.0418C46.2447 32.0418 45.555 31.9203 44.9221 31.6773C44.2892 31.4343 43.7131 31.086 43.1938 30.6323L40.0293 32.4793C40.0618 32.6413 40.0861 32.8114 40.1023 32.9896C40.1186 33.1678 40.1267 33.338 40.1267 33.5C40.1267 33.662 40.1186 33.8402 40.1023 34.0346C40.0861 34.229 40.0618 34.4073 40.0293 34.5693L43.1938 36.3676C43.7131 35.914 44.2892 35.5657 44.9221 35.3226C45.555 35.0796 46.2447 34.9581 46.9911 34.9581C48.614 34.9581 49.9933 35.5252 51.1293 36.6593C52.2653 37.7934 52.8333 39.1705 52.8333 40.7906C52.8333 42.4108 52.2653 43.7879 51.1293 44.922C49.9933 46.0561 48.614 46.6231 46.9911 46.6231C45.3683 46.6231 43.989 46.0561 42.853 44.922C41.717 43.7879 41.149 42.4108 41.149 40.7906C41.149 40.5962 41.1572 40.4099 41.1734 40.2317C41.1896 40.0535 41.214 39.8833 41.2464 39.7213L38.1306 37.923C37.871 38.1822 37.587 38.3928 37.2786 38.5548C36.9703 38.7168 36.6376 38.8626 36.2806 38.9923V42.589C37.4166 42.9778 38.3497 43.6745 39.08 44.679C39.8102 45.6834 40.1754 46.8175 40.1754 48.0813C40.1754 49.7014 39.6074 51.0785 38.4714 52.2126C37.3354 53.3467 35.9561 53.9138 34.3333 53.9138ZM34.3333 50.0254C34.885 50.0254 35.3475 49.8391 35.7208 49.4665C36.094 49.0938 36.2806 48.6321 36.2806 48.0813C36.2806 47.5304 36.094 47.0687 35.7208 46.696C35.3475 46.3234 34.885 46.1371 34.3333 46.1371C33.7815 46.1371 33.319 46.3234 32.9458 46.696C32.5725 47.0687 32.3859 47.5304 32.3859 48.0813C32.3859 48.6321 32.5725 49.0938 32.9458 49.4665C33.319 49.8391 33.7815 50.0254 34.3333 50.0254ZM21.6754 42.7348C22.2271 42.7348 22.6896 42.5485 23.0629 42.1758C23.4361 41.8032 23.6227 41.3415 23.6227 40.7906C23.6227 40.2398 23.4361 39.778 23.0629 39.4054C22.6896 39.0328 22.2271 38.8464 21.6754 38.8464C21.1236 38.8464 20.6611 39.0328 20.2879 39.4054C19.9146 39.778 19.728 40.2398 19.728 40.7906C19.728 41.3415 19.9146 41.8032 20.2879 42.1758C20.6611 42.5485 21.1236 42.7348 21.6754 42.7348ZM46.9911 42.7348C47.5429 42.7348 48.0054 42.5485 48.3786 42.1758C48.7519 41.8032 48.9385 41.3415 48.9385 40.7906C48.9385 40.2398 48.7519 39.778 48.3786 39.4054C48.0054 39.0328 47.5429 38.8464 46.9911 38.8464C46.4394 38.8464 45.9769 39.0328 45.6036 39.4054C45.2304 39.778 45.0438 40.2398 45.0438 40.7906C45.0438 41.3415 45.2304 41.8032 45.6036 42.1758C45.9769 42.5485 46.4394 42.7348 46.9911 42.7348ZM34.3333 35.4441C34.885 35.4441 35.3475 35.2578 35.7208 34.8852C36.094 34.5126 36.2806 34.0508 36.2806 33.5C36.2806 32.9491 36.094 32.4874 35.7208 32.1148C35.3475 31.7421 34.885 31.5558 34.3333 31.5558C33.7815 31.5558 33.319 31.7421 32.9458 32.1148C32.5725 32.4874 32.3859 32.9491 32.3859 33.5C32.3859 34.0508 32.5725 34.5126 32.9458 34.8852C33.319 35.2578 33.7815 35.4441 34.3333 35.4441ZM21.6754 28.1535C22.2271 28.1535 22.6896 27.9672 23.0629 27.5946C23.4361 27.2219 23.6227 26.7602 23.6227 26.2093C23.6227 25.6585 23.4361 25.1967 23.0629 24.8241C22.6896 24.4515 22.2271 24.2652 21.6754 24.2652C21.1236 24.2652 20.6611 24.4515 20.2879 24.8241C19.9146 25.1967 19.728 25.6585 19.728 26.2093C19.728 26.7602 19.9146 27.2219 20.2879 27.5946C20.6611 27.9672 21.1236 28.1535 21.6754 28.1535ZM46.9911 28.1535C47.5429 28.1535 48.0054 27.9672 48.3786 27.5946C48.7519 27.2219 48.9385 26.7602 48.9385 26.2093C48.9385 25.6585 48.7519 25.1967 48.3786 24.8241C48.0054 24.4515 47.5429 24.2652 46.9911 24.2652C46.4394 24.2652 45.9769 24.4515 45.6036 24.8241C45.2304 25.1967 45.0438 25.6585 45.0438 26.2093C45.0438 26.7602 45.2304 27.2219 45.6036 27.5946C45.9769 27.9672 46.4394 28.1535 46.9911 28.1535ZM34.3333 20.8629C34.885 20.8629 35.3475 20.6765 35.7208 20.3039C36.094 19.9313 36.2806 19.4695 36.2806 18.9187C36.2806 18.3678 36.094 17.9061 35.7208 17.5335C35.3475 17.1608 34.885 16.9745 34.3333 16.9745C33.7815 16.9745 33.319 17.1608 32.9458 17.5335C32.5725 17.9061 32.3859 18.3678 32.3859 18.9187C32.3859 19.4695 32.5725 19.9313 32.9458 20.3039C33.319 20.6765 33.7815 20.8629 34.3333 20.8629Z" fill="#3FAC3B"/>
</svg>
