<svg width="38" height="35" viewBox="0 0 38 35" fill="none" xmlns="http://www.w3.org/2000/svg">
<path d="M31.5 0H5.55882C2.48877 0 0 2.35051 0 5.25V29.75C0 32.6495 2.48877 35 5.55882 35H31.5C34.5701 35 37.0588 32.6495 37.0588 29.75V5.25C37.0588 2.35051 34.5701 0 31.5 0Z" fill="#37AEE2"/>
<path d="M14.4036 27.6172C13.6074 27.6172 13.6798 27.3438 13.4627 26.6602L11.1465 19.4824L28.8797 9.63867" fill="#C8DAEA"/>
<path d="M14.4038 27.6172C14.9105 27.6172 15.2 27.3438 15.5619 27.0703L18.819 24.1309L14.7657 21.8066" fill="#A9C9DD"/>
<path d="M14.7657 21.8067L24.537 28.5742C25.5504 29.1895 26.4189 28.8477 26.7085 27.6172L30.6894 9.98049C31.0513 8.47659 30.038 7.79299 28.9523 8.27151L5.71811 16.7481C4.19812 17.2949 4.19812 18.1836 5.42859 18.5254L11.4362 20.3028L25.1885 12.0313C25.8399 11.6895 26.4189 11.8262 25.9847 12.3047" fill="#F6FBFE"/>
</svg>
