<svg width="35" height="35" viewBox="0 0 35 35" fill="none" xmlns="http://www.w3.org/2000/svg">
<path d="M29.75 0H5.25C2.35051 0 0 2.35051 0 5.25V29.75C0 32.6495 2.35051 35 5.25 35H29.75C32.6495 35 35 32.6495 35 29.75V5.25C35 2.35051 32.6495 0 29.75 0Z" fill="#25D366"/>
<path d="M8.40826 26.8653L9.36529 22.4219C8.13522 20.4818 7.65537 18.1594 8.01576 15.8907C8.37615 13.6219 9.55202 11.5626 11.3227 10.0991C13.0935 8.63561 15.3374 7.86855 17.6334 7.94181C19.9295 8.01508 22.1199 8.92364 23.7937 10.497C25.4675 12.0704 26.5097 14.2005 26.7247 16.4877C26.9397 18.7748 26.3128 21.0618 24.9616 22.9196C23.6103 24.7773 21.6276 26.0782 19.3854 26.5781C17.1432 27.078 14.7957 26.7426 12.7833 25.6348L8.40826 26.8653Z" fill="#25D366" stroke="white" stroke-width="2"/>
<path d="M21.0548 18.6619C20.8497 18.5252 20.6446 18.4568 20.4395 18.7303L19.6192 19.824C19.4142 19.9607 19.2774 20.0291 19.004 19.8924C17.9786 19.3455 16.5431 18.7303 15.3126 16.6795C15.2442 16.4061 15.381 16.2693 15.5177 16.1326L16.1329 15.1756C16.2696 15.0389 16.2013 14.9021 16.1329 14.7654L15.3126 12.783C15.1075 12.2361 14.9024 12.3045 14.6974 12.3045H14.1505C14.0138 12.3045 13.7403 12.3729 13.4669 12.6463C11.963 14.1502 12.5782 16.2693 13.672 17.6365C13.877 17.91 15.2442 20.3709 18.1837 21.6697C20.3712 22.6268 20.8497 22.49 21.4649 22.3533C22.2169 22.285 22.9688 21.6697 23.3106 21.0545C23.379 20.8494 23.7208 19.9607 23.4474 19.824" fill="white"/>
</svg>
